<svg xmlns="http://www.w3.org/2000/svg" viewBox="0 0 412.67 100"><defs><style>.cls-1{fill:#fff;}.cls-2{fill:#0e8b45;}.cls-3{fill:#f17922;}.cls-4{fill:#6f7172;}.cls-5{fill:#717270;}.cls-6{fill:#0f8041;}.cls-7{fill:#e87827;}.cls-8{fill:#6e6f71;}</style></defs><title>Asset 7</title><g id="Layer_2" data-name="Layer 2"><g id="Layer_1-2" data-name="Layer 1"><rect class="cls-1" width="412.67" height="100"/><polygon class="cls-2" points="222.07 26.13 232.79 45.75 210.25 65.36 222.07 26.13"/><polygon class="cls-3" points="214.55 26.13 225.27 45.75 202.71 65.36 214.55 26.13"/><path class="cls-4" d="M66.3,64.07a5.18,5.18,0,0,0,2.08-2.77L72,49.55a2.72,2.72,0,0,0-.43-2.69,3.31,3.31,0,0,0-2.69-1.09,5.75,5.75,0,0,0,3.36-1.11,5.18,5.18,0,0,0,2.06-2.72L77.83,30.2a3,3,0,0,0-.35-2.83,3.22,3.22,0,0,0-2.72-1.12H28.25L16.43,65.18H63a5.72,5.72,0,0,0,3.35-1.11M34.4,33.85H65A3.06,3.06,0,0,1,67,35.22a4.94,4.94,0,0,1,.24,1.49,5.29,5.29,0,0,1-.07.8l-.09.26-.29,1a5.75,5.75,0,0,1-4.61,3.19H31.94ZM62,54.59a5.76,5.76,0,0,1-4.47,3H27.2l2.44-8H60.22a2.93,2.93,0,0,1,2.24,2.09,5.36,5.36,0,0,1,.06.7c0,.12,0,.25,0,.36a.81.81,0,0,0,0,.15Z"/><polygon class="cls-4" points="126.56 26.28 121.88 41.91 88.33 41.91 93 26.28 84.66 26.28 73.05 65.08 81.4 65.08 86.06 49.51 119.61 49.51 114.95 65.08 123.3 65.08 134.91 26.28 126.56 26.28"/><polygon class="cls-4" points="137.33 65.21 128.93 65.21 140.61 26.41 149.01 26.41 137.33 65.21"/><polygon class="cls-4" points="207.43 26.38 172.57 53.54 160.42 34.96 154.8 26.38 154.65 26.38 152 35.19 143.04 65.06 151.38 65.06 157.66 44.12 170.97 65.11 193.01 46.53 187.48 65.06 195.83 65.06 203.98 37.91 207.44 26.38 207.43 26.38"/><path class="cls-4" d="M13.89,75.62l1.49-5.74h1.67a5.27,5.27,0,0,1,1,.07,1.12,1.12,0,0,1,.52.22.9.9,0,0,1,.34.51,1.28,1.28,0,0,1,0,.7,1.58,1.58,0,0,1-.45.77,1.67,1.67,0,0,1-.81.43,1,1,0,0,1,.78.46,1.16,1.16,0,0,1,.09.95,2,2,0,0,1-.31.66,2.09,2.09,0,0,1-.54.53,2.12,2.12,0,0,1-.76.35,7.33,7.33,0,0,1-1.37.09Zm1.25-.78h.37a6.2,6.2,0,0,0,.86,0,1.84,1.84,0,0,0,.48-.13,1.3,1.3,0,0,0,.39-.31,1.35,1.35,0,0,0,.22-.43.82.82,0,0,0,0-.47.69.69,0,0,0-.29-.32,1.59,1.59,0,0,0-.33-.1,3.49,3.49,0,0,0-.51,0h-.7Zm.66-2.54h.42a2.67,2.67,0,0,0,1.13-.18.94.94,0,0,0,.48-.61q.12-.48-.12-.66a2,2,0,0,0-1.07-.19h-.41Z"/><polygon class="cls-4" points="22.01 75.62 23.51 69.88 24.58 69.88 24.03 72 27.29 72 27.83 69.88 28.91 69.88 27.41 75.62 26.34 75.62 27.06 72.83 23.81 72.83 23.09 75.62 22.01 75.62"/><path class="cls-4" d="M36.09,75.62l-.36-1.48H33.1L32,75.62H30.82l4.76-6,1.64,6ZM33.7,73.36h1.85l-.34-1.3c0-.09,0-.18-.05-.29s0-.23,0-.37l-.2.36-.21.3Z"/><path class="cls-4" d="M42.32,73.05l-.67,2.57h-1l1.49-5.74h1.5a5.19,5.19,0,0,1,1,.07,1.4,1.4,0,0,1,.55.25,1,1,0,0,1,.34.54,1.61,1.61,0,0,1,0,.72,2,2,0,0,1-.67,1.08,2.3,2.3,0,0,1-1.25.47l1.6,2.61H44l-1.53-2.57Zm.25-.72h.2a2.64,2.64,0,0,0,1.17-.18.87.87,0,0,0,.44-.61.6.6,0,0,0-.12-.67,1.93,1.93,0,0,0-1.06-.19H43Z"/><path class="cls-4" d="M53,75.62l-.37-1.48H50l-1.16,1.48H47.72l4.75-6,1.64,6Zm-2.39-2.26h1.85l-.34-1.3c0-.09,0-.18-.05-.29s0-.23,0-.37c-.07.13-.13.25-.2.36s-.14.2-.2.3Z"/><polygon class="cls-4" points="60.45 70.67 59.15 75.62 58.09 75.62 59.37 70.67 57.62 70.67 57.82 69.88 62.4 69.88 62.19 70.67 60.45 70.67"/><polygon class="cls-4" points="70.12 75.62 71.62 69.88 72.69 69.88 71.19 75.62 70.12 75.62"/><path class="cls-4" d="M75.54,75.62l1.55-6,3.29,3.51.26.32a4.17,4.17,0,0,1,.27.38l1-4h1l-1.55,6L78,72.27c-.08-.1-.17-.19-.25-.3a4,4,0,0,1-.22-.34l-1,4Z"/><polygon class="cls-4" points="89.18 70.67 87.89 75.62 86.82 75.62 88.11 70.67 86.35 70.67 86.56 69.88 91.13 69.88 90.94 70.67 89.18 70.67"/><polygon class="cls-4" points="93.25 75.62 94.75 69.88 98.44 69.88 98.24 70.67 95.62 70.67 95.25 72.11 97.86 72.11 97.64 72.93 95.03 72.93 94.55 74.79 97.16 74.79 96.94 75.62 93.25 75.62"/><path class="cls-4" d="M102.65,73.05,102,75.62h-1l1.5-5.74H104a5.08,5.08,0,0,1,1,.07,1.45,1.45,0,0,1,.56.25,1.07,1.07,0,0,1,.33.54,1.61,1.61,0,0,1,0,.72,2,2,0,0,1-.67,1.08,2.3,2.3,0,0,1-1.25.47l1.59,2.61H104.3l-1.53-2.57Zm.25-.72h.2a2.61,2.61,0,0,0,1.17-.18.87.87,0,0,0,.44-.61c.09-.31.05-.54-.12-.67a1.93,1.93,0,0,0-1.06-.19h-.19Z"/><polygon class="cls-4" points="108.94 75.62 110.44 69.88 114.12 69.88 113.92 70.67 111.31 70.67 110.94 72.11 113.55 72.11 113.34 72.92 110.72 72.92 110.02 75.62 108.94 75.62"/><path class="cls-4" d="M120.63,75.62l-.37-1.48h-2.61l-1.16,1.48h-1.13l4.76-6,1.64,6Zm-2.38-2.26h1.84l-.34-1.3c0-.09,0-.18,0-.29a3.5,3.5,0,0,1,0-.37q-.11.19-.21.36l-.2.3Z"/><path class="cls-4" d="M131.46,71.27a2.63,2.63,0,0,0-.83-.5,3.15,3.15,0,0,0-1-.17,3.18,3.18,0,0,0-1.92.61,2.76,2.76,0,0,0-1.08,1.56,1.64,1.64,0,0,0,.26,1.53,1.87,1.87,0,0,0,1.51.61,4.32,4.32,0,0,0,1.17-.18,5,5,0,0,0,1.15-.55l-.26,1.06a4.53,4.53,0,0,1-1.06.4,4.69,4.69,0,0,1-1.14.13,4,4,0,0,1-1.34-.21,2.55,2.55,0,0,1-1-.63,2,2,0,0,1-.49-1,2.69,2.69,0,0,1,0-1.19,3.4,3.4,0,0,1,.57-1.18,4.28,4.28,0,0,1,1-1,4.86,4.86,0,0,1,1.29-.64,4.64,4.64,0,0,1,1.43-.22,3.71,3.71,0,0,1,1.08.15,3.48,3.48,0,0,1,.91.44Z"/><polygon class="cls-4" points="134.45 75.62 135.94 69.88 139.63 69.88 139.42 70.67 136.81 70.67 136.43 72.11 139.05 72.11 138.84 72.93 136.22 72.93 135.73 74.79 138.35 74.79 138.14 75.62 134.45 75.62"/><polygon class="cls-4" points="147.75 75.62 149.24 69.88 152.93 69.88 152.72 70.67 150.11 70.67 149.74 72.11 152.35 72.11 152.14 72.92 149.53 72.92 148.82 75.62 147.75 75.62"/><path class="cls-4" d="M162.92,72.76a3.39,3.39,0,0,1-.57,1.16,4.51,4.51,0,0,1-1,1,4.86,4.86,0,0,1-1.33.66,4.5,4.5,0,0,1-1.4.22,3.42,3.42,0,0,1-1.3-.23,2.48,2.48,0,0,1-1-.65,2.14,2.14,0,0,1-.51-1,2.46,2.46,0,0,1,0-1.17,3.37,3.37,0,0,1,.56-1.16,4.3,4.3,0,0,1,1-1,5,5,0,0,1,1.33-.66,4.52,4.52,0,0,1,1.41-.22,3.58,3.58,0,0,1,1.3.22,2.54,2.54,0,0,1,1,.66,2,2,0,0,1,.51,1,2.37,2.37,0,0,1,0,1.15m-1.13,0a1.81,1.81,0,0,0,0-.83,1.61,1.61,0,0,0-1-1.16,2.48,2.48,0,0,0-.89-.16,2.93,2.93,0,0,0-1,.16,3.28,3.28,0,0,0-.91.47,2.87,2.87,0,0,0-.7.69,2.54,2.54,0,0,0-.4.83,1.78,1.78,0,0,0,0,.82,1.5,1.5,0,0,0,.35.7,1.77,1.77,0,0,0,.66.47,2.48,2.48,0,0,0,.89.16,3.22,3.22,0,0,0,1-.16,3.69,3.69,0,0,0,.9-.47,3.15,3.15,0,0,0,.71-.7,2.29,2.29,0,0,0,.39-.82"/><path class="cls-4" d="M167.88,73.05l-.67,2.57h-1l1.5-5.74h1.49a5.19,5.19,0,0,1,1,.07,1.4,1.4,0,0,1,.55.25,1,1,0,0,1,.34.54,1.47,1.47,0,0,1,0,.72,2,2,0,0,1-.67,1.08,2.3,2.3,0,0,1-1.25.47l1.59,2.61h-1.21L168,73.05Zm.25-.72h.2a2.64,2.64,0,0,0,1.17-.18.87.87,0,0,0,.44-.61c.08-.31.05-.54-.12-.67a1.93,1.93,0,0,0-1.06-.19h-.2Z"/><path class="cls-4" d="M185.88,72.78s0-.16,0-.36,0-.31.05-.42a2.56,2.56,0,0,1-.22.39,4.41,4.41,0,0,1-.29.4l-2.52,3.06L182,72.73a2.83,2.83,0,0,1-.09-.37c0-.12,0-.24-.05-.36a3.43,3.43,0,0,1-.13.38,3.07,3.07,0,0,1-.2.41l-1.44,2.83h-1l3.13-6,1,3.62a1.52,1.52,0,0,1,.07.29c0,.13.06.3.09.49a7.7,7.7,0,0,1,.47-.63l.12-.15,2.85-3.62,0,6h-1Z"/><path class="cls-4" d="M198.05,72.76a3.2,3.2,0,0,1-.56,1.16,4.51,4.51,0,0,1-1,1,5.1,5.1,0,0,1-1.32.66,4.62,4.62,0,0,1-1.42.22,3.45,3.45,0,0,1-1.3-.23,2.44,2.44,0,0,1-1-.65,2.26,2.26,0,0,1-.52-1,2.46,2.46,0,0,1,0-1.17,3.39,3.39,0,0,1,.57-1.16,4.3,4.3,0,0,1,1-1,4.8,4.8,0,0,1,1.32-.66,4.56,4.56,0,0,1,1.41-.22,3.58,3.58,0,0,1,1.3.22,2.46,2.46,0,0,1,1,.66,2,2,0,0,1,.52,1,2.37,2.37,0,0,1,0,1.15m-1.12,0a1.81,1.81,0,0,0,0-.83,1.62,1.62,0,0,0-.35-.69,1.59,1.59,0,0,0-.66-.47,2.46,2.46,0,0,0-.88-.16,3,3,0,0,0-1,.16,3.43,3.43,0,0,0-.91.47,3.06,3.06,0,0,0-.7.69,2.54,2.54,0,0,0-.4.83,1.91,1.91,0,0,0,0,.82,1.48,1.48,0,0,0,.34.7,1.85,1.85,0,0,0,.66.47,2.52,2.52,0,0,0,.89.16,3.17,3.17,0,0,0,1-.16,3.75,3.75,0,0,0,.91-.47,3.37,3.37,0,0,0,.71-.7,2.29,2.29,0,0,0,.39-.82"/><path class="cls-4" d="M201.34,75.62l1.55-6,3.28,3.51.27.32a4.17,4.17,0,0,1,.27.38l1-4h1l-1.56,6-3.35-3.57a3.61,3.61,0,0,1-.25-.3,4,4,0,0,1-.22-.34l-1,4Z"/><polygon class="cls-4" points="211.56 75.62 213.05 69.88 216.74 69.88 216.53 70.67 213.92 70.67 213.55 72.11 216.16 72.11 215.94 72.93 213.33 72.93 212.85 74.79 215.47 74.79 215.25 75.62 211.56 75.62"/><path class="cls-4" d="M220.69,75.62l.69-2.63L220,69.88h1.13l.88,2L222,72a2.13,2.13,0,0,1,.08.27l.21-.26a2.36,2.36,0,0,1,.2-.23l1.92-1.92h1.08L222.44,73l-.68,2.63Z"/><path class="cls-5" d="M254.71,68.63h1.09l-1,4.22a1.79,1.79,0,0,0,.09,1.41,1.28,1.28,0,0,0,1.15.47,2,2,0,0,0,1.37-.47,2.62,2.62,0,0,0,.76-1.41l1-4.22h1.1l-1,4.32A3.73,3.73,0,0,1,258,75.06a3.47,3.47,0,0,1-2.26.7,2.26,2.26,0,0,1-1.92-.7,2.52,2.52,0,0,1-.18-2.11Z"/><path class="cls-5" d="M260.12,75.57l1.73-7.21,3.28,4.24q.14.18.27.39c.08.13.17.28.26.46l1.16-4.82h1l-1.72,7.22-3.35-4.32c-.09-.12-.18-.24-.26-.37s-.15-.27-.21-.41l-1.16,4.82Z"/><polygon class="cls-5" points="267.74 75.57 269.4 68.63 270.5 68.63 268.84 75.57 267.74 75.57"/><polygon class="cls-5" points="270.42 75.57 272.09 68.63 275.86 68.63 275.63 69.59 272.96 69.59 272.54 71.32 275.22 71.32 274.98 72.31 272.3 72.31 271.52 75.57 270.42 75.57"/><polygon class="cls-5" points="275.41 75.57 277.07 68.63 278.17 68.63 276.51 75.57 275.41 75.57"/><polygon class="cls-5" points="278.09 75.57 279.75 68.63 283.53 68.63 283.3 69.59 280.62 69.59 280.21 71.33 282.88 71.33 282.65 72.32 279.97 72.32 279.43 74.56 282.11 74.56 281.87 75.57 278.09 75.57"/><path class="cls-5" d="M283.13,75.57l1.66-6.94h1.48a8.79,8.79,0,0,1,2,.15,2.1,2.1,0,0,1,.92.5,2.06,2.06,0,0,1,.6,1.18,4,4,0,0,1-.09,1.65,5.13,5.13,0,0,1-.69,1.64,4.34,4.34,0,0,1-1.17,1.17,3.49,3.49,0,0,1-1.13.51,8.12,8.12,0,0,1-1.8.14h-1.78Zm1.34-1h.93a5,5,0,0,0,1.17-.1,2.19,2.19,0,0,0,.74-.35,2.86,2.86,0,0,0,.78-.84,3.92,3.92,0,0,0,.47-1.16,3.21,3.21,0,0,0,.09-1.16,1.55,1.55,0,0,0-.38-.84,1.2,1.2,0,0,0-.6-.35,5,5,0,0,0-1.23-.11h-.79Z"/><path class="cls-5" d="M294.77,72.46,294,75.57h-1l1.66-6.94h1.67a4.52,4.52,0,0,1,1.07.09,1.2,1.2,0,0,1,.54.27,1.17,1.17,0,0,1,.34.65,2.13,2.13,0,0,1,0,.9,2.87,2.87,0,0,1-.4.91,2.3,2.3,0,0,1-.66.66,2,2,0,0,1-.67.27,6,6,0,0,1-1.11.08h-.63Zm.29-.92h.28a2.71,2.71,0,0,0,1.27-.21,1.05,1.05,0,0,0,.48-.72.73.73,0,0,0-.14-.78,2,2,0,0,0-1.15-.23h-.28Z"/><path class="cls-5" d="M302,75.57l-.34-1.78H299l-1.21,1.78h-1.16l5-7.21,1.54,7.21Zm-2.39-2.72h1.89l-.32-1.59c0-.1,0-.21,0-.34s0-.28,0-.44c-.07.15-.15.29-.22.42s-.15.25-.22.36Z"/><path class="cls-5" d="M304.72,75.57l.76-3.17-1.38-3.77h1.16l.85,2.36.07.24a2.81,2.81,0,0,1,.08.31l.21-.31a2,2,0,0,1,.22-.27l2-2.33h1.1l-3.23,3.77-.76,3.17Z"/><path class="cls-5" d="M315.21,72.15c0-.06,0-.21.05-.45s0-.37.05-.5a2.92,2.92,0,0,1-.23.47,5.6,5.6,0,0,1-.31.49l-2.65,3.69-.87-3.77a3.54,3.54,0,0,1-.08-.45c0-.15,0-.29,0-.43l-.14.46c-.06.16-.13.32-.21.5l-1.55,3.41h-1l3.33-7.23.95,4.38c0,.07,0,.19.06.35s.05.36.08.59c.12-.19.28-.45.49-.75l.13-.19,3-4.38-.1,7.23h-1Z"/><polygon class="cls-5" points="317.04 75.57 318.7 68.63 322.48 68.63 322.25 69.59 319.57 69.59 319.15 71.33 321.83 71.33 321.59 72.32 318.92 72.32 318.38 74.56 321.06 74.56 320.81 75.57 317.04 75.57"/><path class="cls-5" d="M322.08,75.57l1.72-7.21,3.29,4.24.26.39a3.74,3.74,0,0,1,.27.46l1.15-4.82h1l-1.73,7.22-3.35-4.32c-.09-.12-.17-.24-.25-.37s-.15-.27-.22-.41l-1.15,4.82Z"/><polygon class="cls-5" points="333.3 69.59 331.86 75.57 330.76 75.57 332.2 69.59 330.4 69.59 330.63 68.63 335.31 68.63 335.08 69.59 333.3 69.59"/><path class="cls-5" d="M334.44,74.19l1-.42a.93.93,0,0,0,.28.71,1.19,1.19,0,0,0,.8.24,1.31,1.31,0,0,0,.84-.28,1.24,1.24,0,0,0,.47-.75c.1-.41-.15-.77-.73-1.09l-.19-.1a3.45,3.45,0,0,1-1.24-1,1.43,1.43,0,0,1-.11-1.11,2.34,2.34,0,0,1,.89-1.38,2.56,2.56,0,0,1,1.6-.52,2.12,2.12,0,0,1,1.18.29,1.12,1.12,0,0,1,.49.86l-1,.45a1.06,1.06,0,0,0-.34-.48.84.84,0,0,0-.52-.15,1.23,1.23,0,0,0-.76.24,1,1,0,0,0-.41.63q-.15.63.87,1.17l.12.06a2.9,2.9,0,0,1,1.15.93,1.51,1.51,0,0,1,.11,1.13,2.72,2.72,0,0,1-2.76,2.15,2,2,0,0,1-1.32-.41,1.45,1.45,0,0,1-.44-1.16"/><polygon class="cls-5" points="342.56 75.57 344.23 68.63 345.32 68.63 343.66 75.57 342.56 75.57"/><path class="cls-5" d="M345.24,75.57,347,68.36l3.28,4.24q.13.18.27.39l.27.46,1.15-4.82h1l-1.73,7.22-3.35-4.32a3,3,0,0,1-.25-.37c-.08-.13-.15-.27-.22-.41l-1.15,4.82Z"/><polygon class="cls-5" points="356.46 69.59 355.03 75.57 353.93 75.57 355.36 69.59 353.57 69.59 353.8 68.63 358.48 68.63 358.25 69.59 356.46 69.59"/><polygon class="cls-5" points="357.66 75.57 359.32 68.63 363.1 68.63 362.87 69.59 360.19 69.59 359.78 71.33 362.45 71.33 362.22 72.32 359.54 72.32 359 74.56 361.68 74.56 361.44 75.57 357.66 75.57"/><path class="cls-5" d="M364.47,72.47l-.74,3.1h-1l1.66-6.94h1.54a4.33,4.33,0,0,1,1,.09,1.21,1.21,0,0,1,.56.3,1.23,1.23,0,0,1,.33.65,2.15,2.15,0,0,1,0,.87,2.55,2.55,0,0,1-.71,1.31,2.32,2.32,0,0,1-1.29.57l1.57,3.15h-1.24l-1.51-3.1Zm.28-.88h.2a2.46,2.46,0,0,0,1.21-.21,1.08,1.08,0,0,0,.46-.74c.1-.38.06-.65-.11-.8a1.67,1.67,0,0,0-1.08-.24h-.2Z"/><polygon class="cls-5" points="368 75.57 369.66 68.63 373.44 68.63 373.21 69.59 370.53 69.59 370.12 71.32 372.79 71.32 372.56 72.31 369.88 72.31 369.1 75.57 368 75.57"/><path class="cls-5" d="M377.1,75.57l-.34-1.78h-2.68l-1.21,1.78h-1.16l5-7.21,1.54,7.21Zm-2.39-2.72h1.89l-.32-1.59c0-.1,0-.21,0-.34s0-.28,0-.44l-.22.42-.22.36Z"/><path class="cls-5" d="M385.42,70.32a2.58,2.58,0,0,0-.84-.61,2.51,2.51,0,0,0-1-.2,3,3,0,0,0-2,.73,3.37,3.37,0,0,0-1.15,1.89,2.24,2.24,0,0,0,.23,1.85,1.74,1.74,0,0,0,1.53.73,3.39,3.39,0,0,0,1.2-.22,4.48,4.48,0,0,0,1.2-.66l-.31,1.28a4,4,0,0,1-1.08.49,4.08,4.08,0,0,1-1.17.16,3.45,3.45,0,0,1-1.37-.26,2.48,2.48,0,0,1-1-.77,2.44,2.44,0,0,1-.47-1.17,3.74,3.74,0,0,1,.07-1.44,4.76,4.76,0,0,1,1.66-2.61,4.6,4.6,0,0,1,1.35-.78,4.07,4.07,0,0,1,1.47-.26,3.16,3.16,0,0,1,1.09.18,2.76,2.76,0,0,1,.92.53Z"/><polygon class="cls-5" points="385.53 75.57 387.19 68.63 390.96 68.63 390.73 69.59 388.06 69.59 387.64 71.33 390.32 71.33 390.08 72.32 387.4 72.32 386.87 74.56 389.54 74.56 389.3 75.57 385.53 75.57"/><polygon class="cls-4" points="365.47 62.59 357.91 62.59 368.42 24.61 375.98 24.61 365.47 62.59"/><path class="cls-4" d="M361.54,25.81a2.8,2.8,0,0,0-2.43-1.09H317.54l-2.06,7.44H353.3l-2.2,8H320.84v0h-7.56L307,62.75h7.56l4.21-15.21h34a4.81,4.81,0,0,0,3-1.09,5.09,5.09,0,0,0,1.85-2.69l4.21-15.2a3.09,3.09,0,0,0-.32-2.75"/><path class="cls-4" d="M302.6,60.21a3.48,3.48,0,0,1-3.35,2.55h-39a2.72,2.72,0,0,1-2.38-1.09,3,3,0,0,1-.33-2.69l9.52-34.26h7.57l-8.51,30.6h30.27l8.51-30.6h7.56Z"/><polygon class="cls-6" points="389.04 24.68 398.61 43.72 378.49 62.75 389.04 24.68"/><polygon class="cls-7" points="382.33 24.68 391.89 43.72 371.76 62.75 382.33 24.68"/><line class="cls-8" x1="242.41" y1="29.97" x2="242.41" y2="68.32"/><rect class="cls-8" x="242.03" y="24.15" width="0.76" height="49.99"/></g></g></svg>