<svg xmlns="http://www.w3.org/2000/svg" viewBox="0 0 151.26 60"><defs><style>.cls-1{fill:#606469;}.cls-2{fill:#557ebf;}.cls-3{fill:#36a852;}.cls-4{fill:#f8bb16;}.cls-5{fill:#e94335;}</style></defs><title>Asset 11</title><g id="Layer_2" data-name="Layer 2"><g id="Layer_1-2" data-name="Layer 1"><g id="GPay-Light-themed-buttons"><g id="GPAY---SVGs"><g id="GPay-Brand-Mark"><g id="GPay"><g id="Pay"><path id="Fill-1" class="cls-1" d="M71.54,8.81V24h9.35a7.65,7.65,0,0,0,7.77-7.58,7.26,7.26,0,0,0-2.24-5.28,7.32,7.32,0,0,0-5.53-2.3Zm0,20.5V46.9H66V3.47H80.77a13.44,13.44,0,0,1,9.59,3.76,12.1,12.1,0,0,1,4,9.16,12,12,0,0,1-4,9.22,13.36,13.36,0,0,1-9.59,3.7Z"/><path id="Fill-3" class="cls-1" d="M100,37.8a4.46,4.46,0,0,0,1.85,3.64,6.84,6.84,0,0,0,4.35,1.46,8.9,8.9,0,0,0,6.28-2.61,8.17,8.17,0,0,0,2.76-6.12c-1.74-1.38-4.17-2.06-7.29-2.06a9.46,9.46,0,0,0-5.67,1.63A4.86,4.86,0,0,0,100,37.8m7.23-21.59q6.2,0,9.78,3.31t3.58,9.06V46.9h-5.35V42.78H115a10.67,10.67,0,0,1-9.23,5.09A12,12,0,0,1,97.56,45a9.29,9.29,0,0,1-3.31-7.28,8.85,8.85,0,0,1,3.48-7.34c2.33-1.81,5.44-2.73,9.32-2.73a16.54,16.54,0,0,1,8.2,1.82V28.16a6.33,6.33,0,0,0-2.31-4.94,7.87,7.87,0,0,0-5.4-2,8.56,8.56,0,0,0-7.41,3.94L95.21,22c2.72-3.88,6.72-5.82,12-5.82"/><g id="Group-7"><polygon id="Fill-5" class="cls-1" points="151.26 17.18 132.61 60 126.85 60 133.77 45.02 121.5 17.18 127.58 17.18 136.44 38.53 136.56 38.53 145.18 17.18 151.26 17.18"/></g></g><g id="G"><path id="Fill-8" class="cls-2" d="M49,25.52a29.72,29.72,0,0,0-.43-5.07H25v9.61H38.47a11.56,11.56,0,0,1-5,7.58v6.24h8.06C46.25,39.54,49,33.11,49,25.52"/><path id="Fill-10" class="cls-3" d="M25,49.91a23.9,23.9,0,0,0,16.56-6l-8.06-6.24A15.14,15.14,0,0,1,11,29.73H2.66v6.43A25,25,0,0,0,25,49.91"/><path id="Fill-12" class="cls-4" d="M11,29.73a14.83,14.83,0,0,1,0-9.55V13.75H2.66a24.93,24.93,0,0,0,0,22.41Z"/><path id="Fill-14" class="cls-5" d="M25,9.88a13.55,13.55,0,0,1,9.58,3.74h0L41.69,6.5A24,24,0,0,0,25,0,25,25,0,0,0,2.66,13.75L11,20.18A14.91,14.91,0,0,1,25,9.88"/></g></g></g></g></g></g></g></svg>