<svg xmlns="http://www.w3.org/2000/svg" xmlns:xlink="http://www.w3.org/1999/xlink" viewBox="0 0 361.08 60"><defs><style>.cls-1{fill:none;}.cls-2{fill:#104c8e;}.cls-3{fill:#263172;}.cls-4{clip-path:url(#clip-path);}.cls-5{fill:#fff;}.cls-6{fill:#ed1c24;}</style><clipPath id="clip-path"><rect class="cls-1" width="361.08" height="60"/></clipPath></defs><title>Asset 14</title><g id="Layer_2" data-name="Layer 2"><g id="Layer_1-2" data-name="Layer 1"><rect class="cls-2" width="361.08" height="60"/><rect class="cls-3" x="60.18" width="300.9" height="60"/><g class="cls-4"><path class="cls-5" d="M121.62,22.87H124a10.25,10.25,0,0,1,3.85.54,3.31,3.31,0,0,1,1.51,1.26,7,7,0,0,1,1,2.23,11.25,11.25,0,0,1,.3,2.89,10.3,10.3,0,0,1-.72,4.15,4.51,4.51,0,0,1-2.05,2.41,8.65,8.65,0,0,1-4,.72h-2.35V22.87Zm3.68,21.3a20.75,20.75,0,0,0,5.53-.6,14,14,0,0,0,3.67-1.5,9.39,9.39,0,0,0,2.59-2.53,14.87,14.87,0,0,0,2-4.15,18.39,18.39,0,0,0,.84-5.66,16,16,0,0,0-1.81-7.94,10.27,10.27,0,0,0-5-4.64,19.22,19.22,0,0,0-7.58-1.38h-13v28.4Z"/><polygon class="cls-5" points="97.43 44.17 97.43 33.16 88.65 33.16 88.65 44.17 79.32 44.17 79.32 15.77 88.65 15.77 88.65 25.4 97.43 25.4 97.43 15.77 106.82 15.77 106.82 44.17 97.43 44.17"/></g><g class="cls-4"><polygon class="cls-5" points="144.19 44.17 144.19 15.77 166.4 15.77 166.4 22.81 153.46 22.81 153.46 27.32 163.81 27.32 163.81 34.18 153.46 34.18 153.46 44.17 144.19 44.17"/></g><g class="cls-4"><path class="cls-5" d="M197.81,26.66H189a5.09,5.09,0,0,0-1.57-3.31,4.56,4.56,0,0,0-3.25-1.14,5,5,0,0,0-4,1.92c-1,1.27-1.56,3.37-1.56,6.2a12.29,12.29,0,0,0,.66,4.51,4.74,4.74,0,0,0,1.86,2.29,5.76,5.76,0,0,0,3,.72,4.6,4.6,0,0,0,3.43-1.2A5.07,5.07,0,0,0,189,33.16h9A14.66,14.66,0,0,1,197,37.61a11,11,0,0,1-2.59,3.61A11.72,11.72,0,0,1,190.11,44a15.53,15.53,0,0,1-5.78,1,17.64,17.64,0,0,1-6-1,13.33,13.33,0,0,1-4.63-2.71,13.08,13.08,0,0,1-3-4.09,16,16,0,0,1-1.5-7.1A17.16,17.16,0,0,1,170.31,24a14.42,14.42,0,0,1,2.95-4.81,13,13,0,0,1,4.21-2.89,16.1,16.1,0,0,1,6.5-1.2,18.87,18.87,0,0,1,5.84.9,10.62,10.62,0,0,1,4.45,2.71A13.21,13.21,0,0,1,197,22.75a18.32,18.32,0,0,1,.84,3.91"/></g><g class="cls-4"><path class="cls-5" d="M227.78,22.21a11.5,11.5,0,0,1,2.59.18,3,3,0,0,1,1.33.84,2.49,2.49,0,0,1,.48,1.5,2.32,2.32,0,0,1-.85,1.81,4.84,4.84,0,0,1-3,.66h-3.55v-5Zm2.35,22a26.66,26.66,0,0,0,4.69-.3,13.64,13.64,0,0,0,2.77-1,8.64,8.64,0,0,0,2.11-1.45A7.17,7.17,0,0,0,241.38,39a8.21,8.21,0,0,0,.61-3.31,7.09,7.09,0,0,0-1.27-4.28,6.45,6.45,0,0,0-3.49-2.34c2.47-1.57,3.73-3.55,3.73-6a6.38,6.38,0,0,0-3.25-5.78c-1.68-1-4.27-1.5-7.76-1.5H215.81v28.4Zm-1.5-11.85c1.86,0,3.07.24,3.67.72a2.63,2.63,0,0,1-.06,3.91,6.26,6.26,0,0,1-3.61.72h-3.86V32.32Z"/></g><g class="cls-4"><path class="cls-5" d="M262.57,34.6h-6l2.95-10.35Zm-8.79,9.57,1.08-3.73h9.33l1.09,3.73h9.32l-10.23-28.4h-9.51l-10.23,28.4Z"/></g><g class="cls-4"><polygon class="cls-5" points="278.52 44.17 278.52 15.77 287.24 15.77 297.11 30.99 297.11 15.77 306.08 15.77 306.08 44.17 297.17 44.17 287.54 29.37 287.54 44.17 278.52 44.17"/></g><g class="cls-4"><polygon class="cls-5" points="312.34 44.17 312.34 15.77 321.36 15.77 321.36 25.16 329.85 15.77 340.86 15.77 330.39 26.48 341.95 44.17 330.69 44.17 323.89 32.86 321.36 35.33 321.36 44.17 312.34 44.17"/></g><g class="cls-4"><rect class="cls-6" width="60.18" height="60"/></g><g class="cls-4"><rect class="cls-5" x="10.53" y="10.47" width="39.12" height="39"/></g><g class="cls-4"><rect class="cls-5" x="27.08" width="6.02" height="60"/></g><g class="cls-4"><rect class="cls-5" y="26.96" width="60.18" height="6.02"/></g><g class="cls-4"><rect class="cls-3" x="21.06" y="21" width="18.05" height="17.99"/></g></g></g></svg>