<svg xmlns="http://www.w3.org/2000/svg" viewBox="0 0 191.41 60"><defs><style>.cls-1{fill:#1e398d;}.cls-1,.cls-2{fill-rule:evenodd;}.cls-2{fill:#00aeef;}</style></defs><title>Asset 8</title><g id="Layer_2" data-name="Layer 2"><g id="Layer_1-2" data-name="Layer 1"><path class="cls-1" d="M.18,11.72a1.87,1.87,0,0,1,2-2H21.72c6,.68,10.17,3.73,10.58,11.76V32.33a14.78,14.78,0,0,1-.56,4.53c-1.55,5.23-5.28,7.82-10.86,8.18H12.5V58.33c0,1-.84,1.49-1.85,1.49H1.85A1.68,1.68,0,0,1,0,58L.18,11.72ZM12.59,22h5.2a2.14,2.14,0,0,1,2.13,2.13v6.27a2.14,2.14,0,0,1-2.13,2.14h-5.2V22Z"/><path class="cls-1" d="M41.93,9.78H55.58c8,.47,12.32,4.66,12.2,13.36V55.36c0,2.49-2.52,4.39-4.68,4.39H45.21c-5.43,0-9-4.23-9.91-8.38-.86-4-.22-8.81-.22-12.88,0-6.28,4.16-12.5,11.1-12.5h7.28c2.12-.12,2-4.75,0-4.58H42.08A1.89,1.89,0,0,1,40,19.62V11.18c0-1.08.89-1.4,1.93-1.4Zm7.52,27.85h4.17a1.8,1.8,0,0,1,1.79,1.79v7.26a1.79,1.79,0,0,1-1.79,1.79H49.45a1.79,1.79,0,0,1-1.78-1.79V39.42a1.79,1.79,0,0,1,1.78-1.79Z"/><path class="cls-1" d="M72,12.05V32.4c.5,6.38,6.22,11.16,12.45,11.16h5.77c2.38,0,2.23,4,0,4H77.72c-1.35,0-1.84.71-1.84,1.9v9A1.6,1.6,0,0,0,77.56,60H89.11c9.63,0,15.12-4.62,15.12-15V11.26a1.36,1.36,0,0,0-1.37-1.53H93.18c-.89,0-1.42,1-1.42,1.68v18.5a1.11,1.11,0,0,1-1.15,1.26H86a1.45,1.45,0,0,1-1.63-1.58V11.73c0-1.18-.48-2.05-1.79-2.05H73.3c-1.06,0-1.33,1.05-1.33,2.37Z"/><path class="cls-2" d="M109.1,20.41V11.62a1.72,1.72,0,0,1,1.71-1.72h2.12C118.39,8.76,119.69,5.56,123,2c2-2.22,3.85-2.8,5.18-.45V9.9h5a1.72,1.72,0,0,1,1.72,1.72v8.79a1.73,1.73,0,0,1-1.72,1.72h-5V58.19a1.73,1.73,0,0,1-1.72,1.72h-8.8A1.72,1.72,0,0,1,116,58.19V22.13h-5.16a1.72,1.72,0,0,1-1.71-1.72Z"/><path class="cls-2" d="M171.43,57.61a2.15,2.15,0,0,1-2.15,2.14H161a2.15,2.15,0,0,1-2.15-2.14V24.52c.07-3.58-7.14-4.13-7.14,0V57.61a2.15,2.15,0,0,1-2.15,2.14h-8.24a2.15,2.15,0,0,1-2.15-2.14V11.73a2.15,2.15,0,0,1,2.15-2.14h8.24a2.15,2.15,0,0,1,2.15,2.14v.63c4.82-4.61,13.17-3.88,17.61.91,8.36-9.59,22.69-1,22,9.48,0,11.62-.11,23.14-.11,34.86a2.15,2.15,0,0,1-2.14,2.14h-8.25a2.15,2.15,0,0,1-2.15-2.14V24.74c-.47-4.59-7.4-3.52-7.39,0,0,10.93.08,21.85.08,32.87Z"/></g></g></svg>