<svg xmlns="http://www.w3.org/2000/svg" viewBox="0 0 197.41 60"><defs><style>.cls-1{fill:#664a9e;}.cls-2{fill:#fff;}.cls-3{fill:#212121;}</style></defs><title>Asset 10</title><g id="Layer_2" data-name="Layer 2"><g id="Layer_1-2" data-name="Layer 1"><path class="cls-1" d="M30,0A30,30,0,1,0,60,30,30,30,0,0,0,30,0Z"/><path class="cls-2" d="M43.72,21.87v1a.8.8,0,0,1-.91.9H39.67a.51.51,0,0,0-.4.15.65.65,0,0,0-.13.43v24.4a.91.91,0,0,1-.22.68.93.93,0,0,1-.68.23H35.71a.93.93,0,0,1-.68-.23.92.92,0,0,1-.23-.68V40h-.18a3.64,3.64,0,0,1-1.68,1.51,6.57,6.57,0,0,1-2.71.49H28.85a8.65,8.65,0,0,1-3-.48A6.29,6.29,0,0,1,23.58,40a6.14,6.14,0,0,1-1.49-2.28,8.43,8.43,0,0,1-.49-3V24.38a.69.69,0,0,0-.11-.41.44.44,0,0,0-.32-.17H18.4a.91.91,0,0,1-.68-.24,1,1,0,0,1-.22-.71v-2a.83.83,0,0,1,.22-.64A.94.94,0,0,1,18.4,20H32.45q-1.53-1.59-3-3.36c-1-1.18-1.87-2.43-2.75-3.74l-1.34-2-1.33-2a1.22,1.22,0,0,1-.14-.34,1.18,1.18,0,0,1-.05-.37.73.73,0,0,1,.18-.54.69.69,0,0,1,.53-.18h2.91a1.47,1.47,0,0,1,.74.18,1.31,1.31,0,0,1,.5.54l3.41,5.48,3.41,5.48a1.88,1.88,0,0,0,.57.61,1.25,1.25,0,0,0,.67.2h6a.91.91,0,0,1,.68.22.83.83,0,0,1,.23.64v1Z"/><path class="cls-1" d="M34.28,23.8H26.46a.5.5,0,0,0-.39.14.61.61,0,0,0-.13.43v10a3.83,3.83,0,0,0,.9,2.78,3.61,3.61,0,0,0,2.72.94h1.29a5.31,5.31,0,0,0,1.74-.26A3,3,0,0,0,33.82,37a3.19,3.19,0,0,0,.74-1.21,4.81,4.81,0,0,0,.24-1.58V24.38a.6.6,0,0,0-.13-.43A.47.47,0,0,0,34.28,23.8Z"/><path class="cls-3" d="M80.38,34.79v8H76.63V21.23h8.25a8.37,8.37,0,0,1,5.74,1.88,6.36,6.36,0,0,1,2.12,5A6.1,6.1,0,0,1,90.66,33a8.72,8.72,0,0,1-5.82,1.77H80.38Zm0-3h4.5a4.42,4.42,0,0,0,3.05-.94,3.44,3.44,0,0,0,1-2.71,3.75,3.75,0,0,0-1.07-2.8A4.12,4.12,0,0,0,85,24.25H80.37v7.52Z"/><path class="cls-3" d="M99.52,28.52A5.6,5.6,0,0,1,104,26.47q5.13,0,5.2,5.85V42.79h-3.59V32.46a3.16,3.16,0,0,0-.72-2.35,3,3,0,0,0-2.11-.69,3.47,3.47,0,0,0-3.23,1.92V42.79h-3.6V20h3.6v8.48Z"/><path class="cls-3" d="M112.44,34.63a9.46,9.46,0,0,1,.93-4.24,6.78,6.78,0,0,1,2.62-2.9,7.37,7.37,0,0,1,3.88-1,7,7,0,0,1,5.27,2.09,8.25,8.25,0,0,1,2.18,5.54l0,.84a9.67,9.67,0,0,1-.91,4.24,6.76,6.76,0,0,1-2.61,2.88,7.38,7.38,0,0,1-3.92,1,6.94,6.94,0,0,1-5.42-2.26,8.64,8.64,0,0,1-2-6Zm3.6.31a6.5,6.5,0,0,0,1,3.88,3.32,3.32,0,0,0,2.84,1.39,3.28,3.28,0,0,0,2.84-1.42,7.17,7.17,0,0,0,1-4.16,6.42,6.42,0,0,0-1-3.85,3.34,3.34,0,0,0-2.84-1.42,3.29,3.29,0,0,0-2.8,1.4A7,7,0,0,0,116,34.94Z"/><path class="cls-3" d="M134,26.77l.11,1.85a5.76,5.76,0,0,1,4.66-2.15q5,0,5.1,5.73V42.79h-3.6V32.41a3.3,3.3,0,0,0-.66-2.26,2.78,2.78,0,0,0-2.16-.73,3.47,3.47,0,0,0-3.24,2v11.4h-3.6v-16Z"/><path class="cls-3" d="M154.91,43.09a7.41,7.41,0,0,1-5.54-2.16,7.8,7.8,0,0,1-2.13-5.74v-.44a9.59,9.59,0,0,1,.93-4.29,7,7,0,0,1,2.6-2.94,6.86,6.86,0,0,1,3.73-1.05,6.32,6.32,0,0,1,5.06,2.09,8.82,8.82,0,0,1,1.78,5.91v1.45H150.87a4.85,4.85,0,0,0,1.32,3.14,4,4,0,0,0,2.93,1.15,4.86,4.86,0,0,0,4-2l1.94,1.85a6.48,6.48,0,0,1-2.57,2.23A8,8,0,0,1,154.91,43.09Zm-.43-13.73a3,3,0,0,0-2.39,1,5.35,5.35,0,0,0-1.16,2.88h6.86V33a4.3,4.3,0,0,0-1-2.73A3,3,0,0,0,154.48,29.36Z"/><path class="cls-3" d="M168.53,34.79v8h-3.75V21.23H173a8.37,8.37,0,0,1,5.74,1.88,6.34,6.34,0,0,1,2.13,5A6.13,6.13,0,0,1,178.82,33,8.73,8.73,0,0,1,173,34.8h-4.46Zm0-3H173a4.42,4.42,0,0,0,3.05-.94,3.44,3.44,0,0,0,1-2.71,3.75,3.75,0,0,0-1.06-2.8,4.14,4.14,0,0,0-2.94-1.07h-4.6v7.52Z"/><path class="cls-3" d="M191,43.09a7.45,7.45,0,0,1-5.55-2.16,7.79,7.79,0,0,1-2.12-5.74v-.44a9.59,9.59,0,0,1,.92-4.29,7.09,7.09,0,0,1,2.6-2.94,6.89,6.89,0,0,1,3.73-1.05,6.31,6.31,0,0,1,5.06,2.09,8.82,8.82,0,0,1,1.78,5.91v1.45H186.94a4.81,4.81,0,0,0,1.33,3.14,4,4,0,0,0,2.92,1.15,4.85,4.85,0,0,0,4-2l1.94,1.85a6.48,6.48,0,0,1-2.57,2.23A8,8,0,0,1,191,43.09Zm-.43-13.73a3,3,0,0,0-2.39,1A5.35,5.35,0,0,0,187,33.28h6.86V33a4.36,4.36,0,0,0-1-2.73A3,3,0,0,0,190.56,29.36Z"/></g></g></svg>